<svg width="593" height="150" xmlns="http://www.w3.org/2000/svg" xmlns:xlink="http://www.w3.org/1999/xlink"><defs><path id="a" d="M.715.351h49.986v73.75H.715z"/><path id="c" d="M.418.351h49.255v73.75H.418z"/><path id="e" d="M0 95.65h414.214V1.315H0z"/></defs><g fill="none" fill-rule="evenodd"><g transform="translate(178 27)"><path d="M39.626 30.729c0 5.965-1.74 12.063-14.638 12.063H12.307V18.458H24.68c13.247 0 14.946 6.558 14.946 12.27M24.268 8.212H0v66.854h12.307V52.834h12.785c27.15 0 27.15-14.93 27.15-22.105 0-6.16 0-22.518-27.974-22.518M95.203 50.833v1.097c0 8.907-5.55 14.226-14.843 14.226-7.314 0-11.343-2.53-11.343-7.125 0-3.347 1.933-5.502 11.809-6.61l14.377-1.588zm-13.299-30.17c-16.065 0-23.547 6.305-23.547 19.843v.497l11.69-.113v-.487c0-8.305 4.78-10.006 11.96-10.006 10.366 0 12.803 4.237 13.175 11.106l-16.104 1.601C63.4 44.606 56.71 49.401 56.71 59.134c0 10.427 7.802 16.652 20.872 16.652 10.162 0 17.418-3.88 20.503-7.987l2.078 7.267h6.833V44.623c0-12.626-1.92-23.96-25.092-23.96zM139.848 20.664c-21.928 0-26.531 14.988-26.531 27.561 0 18.288 8.995 27.561 26.736 27.561 15.451 0 23.96-7.778 23.96-21.9v-.493h-12.16l-.04.448c-.773 8.164-4.268 11.49-12.067 11.49-9.705 0-14.225-5.466-14.225-17.21 0-11.951 4.454-17.518 14.02-17.518 7.837 0 11.508 3.683 12.272 12.313l.038.45h12.162v-.493c0-14.321-8.581-22.209-24.165-22.209" fill="#000"/><g transform="translate(170.959 .964)"><mask id="b" fill="#fff"><use xlink:href="#a"/></mask><path fill="#000" mask="url(#b)" d="M48.674 20.42h-16.8L12.713 40.376V.351H.715V74.1h11.998v-22.92L34.236 74.1h16.465L21.274 45.826z"/></g><g transform="translate(224.877 .964)"><mask id="d" fill="#fff"><use xlink:href="#c"/></mask><path d="M28.494 19.7c-7.817 0-13.285 2.054-16.285 6.108V.351H.42v73.75h11.788l.209-30.03c0-9.57 1.943-14.124 12.99-14.124 10.655 0 12.375 4.163 12.375 14.123v30.031h11.892V45.1c0-15.246-3.6-25.4-21.18-25.4" fill="#000" mask="url(#d)"/></g><path d="M294.143 43.307c.743-8.945 4.968-13.116 13.261-13.116 4.048 0 7.207 1.123 9.39 3.337 2.793 2.834 3.402 6.828 3.396 9.78h-26.047zm26.06 14.99c-.845 3.463-3.015 8.065-12.078 8.065-8.577 0-13.313-4.48-14.083-13.322h38.414l.037-.452c.89-11.025-1.3-19.736-6.334-25.192-4.12-4.467-10.085-6.732-17.725-6.732-17.812 0-26.84 9.239-26.84 27.458 0 18.357 9.064 27.663 26.942 27.663 19.463 0 23.493-10.852 24.162-17.32l.057-.543h-12.46l-.093.376z" fill="#000"/><mask id="f" fill="#fff"><use xlink:href="#e"/></mask><path fill="#000" mask="url(#f)" d="M340.566 75.066h11.997V1.314h-11.997zM402.217 48.328c0 10.392-2.42 17.313-14.225 17.313-11.675 0-14.021-6.624-14.021-17.313 0-10.577 2.438-17.622 14.329-17.622 11.549 0 13.917 7.045 13.917 17.622m-10.932-27.664c-12.786 0-18.089 4.734-20.112 7.563l-2.062-6.842h-6.828v74.264h11.792V69.574c2.312 2.736 7.253 6.211 17.417 6.211 15.077 0 22.723-9.238 22.723-27.457 0-18.098-7.929-27.664-22.93-27.664"/></g><path fill="#3900C0" d="M64.952 0L0 37.5 64.95 75l64.953-37.5z"/><path d="M99.006 63.469c0 18.808-15.247 34.055-34.054 34.055-18.807 0-34.054-15.247-34.054-34.055 0-18.807 15.247-34.054 34.054-34.054 18.807 0 34.054 15.247 34.054 34.054" fill="#FFF"/><path fill="#3B61FF" d="M129.904 112.5v-75L64.952 75v75z"/><path fill="#48C7F4" d="M64.952 75L0 37.5v75L64.952 150z"/></g></svg>