<svg version="1.2" xmlns="http://www.w3.org/2000/svg" viewBox="0 0 920 729" width="920" height="729">
	<title>undraw_messages_re_qy9x-svg</title>
	<style>
		.s0 { fill: #e6e6e6 } 
		.s1 { fill: #ffffff } 
		.s2 { fill: #3f3d56 } 
		.s3 { fill: #a0616a } 
		.s4 { fill: #f9a826 } 
		.s5 { fill: #2f2e41 } 
		.s6 { fill: #cccccc } 
	</style>
	<path id="Layer" class="s0" d="m738.7 250.9h-4v413.5c0 8.3-1.7 16.5-4.9 24.2c-3.1 7.7-7.8 14.7-13.7 20.6c-5.9 5.9-12.9 10.6-20.6 13.8c-7.7 3.1-15.9 4.8-24.2 4.8h-232.1c-8.3 0-16.6-1.7-24.3-4.8c-7.7-3.2-14.7-7.9-20.6-13.8c-5.8-5.9-10.5-12.9-13.7-20.6c-3.2-7.7-4.8-15.9-4.8-24.2v-601c0-8.3 1.6-16.6 4.8-24.3c3.2-7.7 7.9-14.6 13.7-20.5c5.9-5.9 12.9-10.6 20.6-13.8c7.7-3.2 16-4.8 24.3-4.8h232.1c8.3 0 16.5 1.6 24.2 4.8c7.7 3.2 14.7 7.9 20.6 13.8c5.9 5.9 10.6 12.8 13.7 20.5c3.2 7.7 4.9 16 4.9 24.3v109.5h4z" />
	<path id="Layer" class="s1" d="m721.2 63.8v600.1c0 6.3-1.3 12.4-3.6 18.2c-2.4 5.7-5.9 10.9-10.3 15.3c-4.4 4.4-9.6 7.9-15.4 10.3c-5.7 2.4-11.9 3.6-18.1 3.6h-233.2c-6.2 0-12.4-1.2-18.1-3.6c-5.7-2.4-11-5.9-15.4-10.3c-4.4-4.4-7.8-9.6-10.2-15.3c-2.4-5.8-3.6-11.9-3.6-18.2v-600.1c0-6.2 1.2-12.3 3.6-18.1c2.4-5.7 5.8-10.9 10.2-15.3c4.4-4.4 9.7-7.9 15.4-10.3c5.7-2.4 11.9-3.6 18.1-3.6h28.3c-1.4 3.4-1.9 7.1-1.5 10.8c0.3 3.7 1.6 7.2 3.7 10.2c2 3.1 4.8 5.6 8.1 7.3c3.2 1.8 6.9 2.7 10.5 2.7h133c3.7 0 7.3-0.9 10.6-2.7c3.2-1.7 6-4.2 8.1-7.3c2-3 3.3-6.5 3.7-10.2c0.4-3.7-0.2-7.4-1.6-10.8h30.3c6.2 0 12.4 1.2 18.1 3.6c5.8 2.4 11 5.9 15.4 10.3c4.4 4.4 7.9 9.6 10.3 15.3c2.3 5.8 3.6 11.9 3.6 18.1z" />
	<path id="Layer" class="s0" d="m475.7 81.5c6 6 9.4 14.2 9.4 22.7c0 8.4-3.4 16.6-9.4 22.6c-6 6-14.2 9.4-22.6 9.4c-8.5 0-16.7-3.4-22.7-9.4c-6-6-9.3-14.2-9.3-22.6c0-8.5 3.3-16.7 9.3-22.7c6-6 14.2-9.3 22.7-9.3c8.4 0 16.6 3.3 22.6 9.3z" />
	<path id="Layer" class="s0" d="m685.4 131.2h-168c-2.1 0-4.2-0.9-5.7-2.4c-1.5-1.5-2.3-3.5-2.3-5.6c0-2.2 0.8-4.2 2.3-5.7c1.5-1.5 3.6-2.3 5.7-2.3h168c2.1 0 4.1 0.8 5.6 2.3c1.5 1.5 2.4 3.5 2.4 5.7c0 2.1-0.9 4.1-2.4 5.6c-1.5 1.5-3.5 2.4-5.6 2.4z" />
	<path id="Layer" class="s0" d="m570.4 97.2h-53c-2.1 0-4.2-0.9-5.7-2.4c-1.5-1.5-2.3-3.5-2.3-5.6c0-2.2 0.8-4.2 2.3-5.7c1.5-1.5 3.6-2.3 5.7-2.3h53c2.1 0 4.1 0.8 5.6 2.3c1.5 1.5 2.4 3.5 2.4 5.7c0 2.1-0.9 4.1-2.4 5.6c-1.5 1.5-3.5 2.4-5.6 2.4z" />
	<path id="Layer" class="s0" d="m475.7 215.5c6 6 9.4 14.2 9.4 22.7c0 8.4-3.4 16.6-9.4 22.6c-6 6-14.2 9.4-22.6 9.4c-8.5 0-16.7-3.4-22.7-9.4c-6-6-9.3-14.2-9.3-22.6c0-8.5 3.3-16.7 9.3-22.7c6-6 14.2-9.3 22.7-9.3c8.4 0 16.6 3.3 22.6 9.3z" />
	<path id="Layer" class="s0" d="m685.4 265.2h-168c-2.1 0-4.2-0.9-5.7-2.4c-1.5-1.5-2.3-3.5-2.3-5.6c0-2.2 0.8-4.2 2.3-5.7c1.5-1.5 3.6-2.3 5.7-2.3h168c2.1 0 4.1 0.8 5.6 2.3c1.5 1.5 2.4 3.5 2.4 5.7c0 2.1-0.9 4.1-2.4 5.6c-1.5 1.5-3.5 2.4-5.6 2.4z" />
	<path id="Layer" class="s0" d="m570.4 231.2h-53c-2.1 0-4.2-0.9-5.7-2.4c-1.5-1.5-2.3-3.5-2.3-5.6c0-2.2 0.8-4.2 2.3-5.7c1.5-1.5 3.6-2.3 5.7-2.3h53c2.1 0 4.1 0.8 5.6 2.3c1.5 1.5 2.4 3.5 2.4 5.7c0 2.1-0.9 4.1-2.4 5.6c-1.5 1.5-3.5 2.4-5.6 2.4z" />
	<path id="Layer" class="s0" d="m475.7 483.5c6 6 9.4 14.2 9.4 22.7c0 8.4-3.4 16.6-9.4 22.6c-6 6-14.2 9.4-22.6 9.4c-8.5 0-16.7-3.4-22.7-9.4c-6-6-9.3-14.2-9.3-22.6c0-8.5 3.3-16.7 9.3-22.7c6-6 14.2-9.3 22.7-9.3c8.4 0 16.6 3.3 22.6 9.3z" />
	<path id="Layer" class="s0" d="m685.4 533.2h-168c-2.1 0-4.2-0.9-5.7-2.4c-1.5-1.5-2.3-3.5-2.3-5.6c0-2.2 0.8-4.2 2.3-5.7c1.5-1.5 3.6-2.3 5.7-2.3h168c2.1 0 4.1 0.8 5.6 2.3c1.5 1.5 2.4 3.5 2.4 5.7c0 2.1-0.9 4.1-2.4 5.6c-1.5 1.5-3.5 2.4-5.6 2.4z" />
	<path id="Layer" class="s0" d="m570.4 499.2h-53c-2.1 0-4.2-0.9-5.7-2.4c-1.5-1.5-2.3-3.5-2.3-5.6c0-2.2 0.8-4.2 2.3-5.7c1.5-1.5 3.6-2.3 5.7-2.3h53c2.1 0 4.1 0.8 5.6 2.3c1.5 1.5 2.4 3.5 2.4 5.7c0 2.1-0.9 4.1-2.4 5.6c-1.5 1.5-3.5 2.4-5.6 2.4z" />
	<path id="Layer" class="s0" d="m475.7 617.5c6 6 9.4 14.2 9.4 22.7c0 8.4-3.4 16.6-9.4 22.6c-6 6-14.2 9.4-22.6 9.4c-8.5 0-16.7-3.4-22.7-9.4c-6-6-9.3-14.2-9.3-22.6c0-8.5 3.3-16.7 9.3-22.7c6-6 14.2-9.3 22.7-9.3c8.4 0 16.6 3.3 22.6 9.3z" />
	<path id="Layer" class="s0" d="m685.4 667.2h-168c-2.1 0-4.2-0.9-5.7-2.4c-1.5-1.5-2.3-3.5-2.3-5.6c0-2.2 0.8-4.2 2.3-5.7c1.5-1.5 3.6-2.3 5.7-2.3h168c2.1 0 4.1 0.8 5.6 2.3c1.5 1.5 2.4 3.5 2.4 5.7c0 2.1-0.9 4.1-2.4 5.6c-1.5 1.5-3.5 2.4-5.6 2.4z" />
	<path id="Layer" class="s0" d="m570.4 633.2h-53c-2.1 0-4.2-0.9-5.7-2.4c-1.5-1.5-2.3-3.5-2.3-5.6c0-2.2 0.8-4.2 2.3-5.7c1.5-1.5 3.6-2.3 5.7-2.3h53c2.1 0 4.1 0.8 5.6 2.3c1.5 1.5 2.4 3.5 2.4 5.7c0 2.1-0.9 4.1-2.4 5.6c-1.5 1.5-3.5 2.4-5.6 2.4z" />
	<path id="Layer" class="s1" d="m750.2 449.2h-386c-2.1-0.1-4.3-0.5-6.3-1.3c-2-0.8-3.8-2.1-5.3-3.6c-1.6-1.5-2.8-3.3-3.6-5.3c-0.8-2-1.3-4.2-1.3-6.3v-124c0-2.2 0.5-4.4 1.3-6.4c0.8-2 2-3.8 3.6-5.3c1.5-1.5 3.3-2.8 5.3-3.6c2-0.8 4.2-1.2 6.3-1.2h386c2.2 0 4.3 0.4 6.3 1.2c2 0.8 3.9 2.1 5.4 3.6c1.5 1.5 2.7 3.3 3.6 5.3c0.8 2 1.2 4.2 1.2 6.4v124c0 2.1-0.4 4.3-1.2 6.3c-0.9 2-2.1 3.8-3.6 5.3c-1.5 1.5-3.4 2.8-5.4 3.6c-2 0.8-4.1 1.2-6.3 1.3z" />
	<path id="Layer" fill-rule="evenodd" class="s2" d="m750.2 449.2h-386c-2.1-0.1-4.3-0.5-6.3-1.3c-2-0.8-3.8-2.1-5.3-3.6c-1.6-1.5-2.8-3.3-3.6-5.3c-0.8-2-1.3-4.2-1.3-6.3v-124c0-2.2 0.5-4.4 1.3-6.4c0.8-2 2-3.8 3.6-5.3c1.5-1.5 3.3-2.8 5.3-3.6c2-0.8 4.2-1.2 6.3-1.2h386c2.2 0 4.3 0.4 6.3 1.2c2 0.8 3.9 2.1 5.4 3.6c1.5 1.5 2.7 3.3 3.6 5.3c0.8 2 1.2 4.2 1.2 6.4v124c0 2.1-0.4 4.3-1.2 6.3c-0.9 2-2.1 3.8-3.6 5.3c-1.5 1.5-3.4 2.8-5.4 3.6c-2 0.8-4.1 1.2-6.3 1.3zm-386-156c-2 0-4 0.4-5.9 1.1c-1.9 0.8-3.6 2-5 3.4c-1.5 1.4-2.6 3.1-3.4 5c-0.8 1.9-1.2 3.9-1.2 6v124c0 2 0.4 4 1.2 5.9c0.8 1.9 1.9 3.6 3.4 5c1.4 1.4 3.1 2.6 5 3.4c1.9 0.7 3.9 1.1 5.9 1.2h386c2.1-0.1 4.1-0.5 6-1.2c1.8-0.8 3.5-2 5-3.4c1.4-1.4 2.6-3.1 3.3-5c0.8-1.9 1.2-3.9 1.2-5.9v-124c0-2.1-0.4-4.1-1.2-6c-0.7-1.9-1.9-3.6-3.3-5c-1.5-1.4-3.2-2.6-5-3.4c-1.9-0.7-3.9-1.1-6-1.1z" />
	<path id="Layer" class="s3" d="m177.7 511.2c-0.4-1.5-0.6-3.1-0.3-4.7c0.2-1.5 0.7-3 1.6-4.3c0.8-1.4 2-2.5 3.3-3.3c1.3-0.8 2.8-1.4 4.4-1.6l51.3-59.9l12 12.5l-51.1 57.5c0.1 2.7-0.7 5.3-2.4 7.4c-1.6 2-3.9 3.4-6.5 3.9c-2.7 0.4-5.3-0.1-7.6-1.5c-2.2-1.3-3.9-3.5-4.7-6z" />
	<path id="Layer" class="s4" d="m221.3 446.7q0-0.5 0-0.9q0.1-0.5 0.3-1q0.1-0.4 0.4-0.8q0.3-0.5 0.6-0.8l15.9-16.1c1.9-2.7 4.8-4.4 8.1-5c3.3-0.5 6.6 0.3 9.3 2.3c2.7 1.9 4.5 4.8 5 8.1c0.5 3.3-0.3 6.6-2.2 9.3l-10.6 20.1q-0.4 0.8-1.2 1.4q-0.8 0.6-1.7 0.9q-1 0.2-1.9 0q-1-0.2-1.8-0.8l-18.4-13.4q-0.3-0.3-0.7-0.7q-0.3-0.3-0.5-0.7q-0.3-0.5-0.4-0.9q-0.1-0.5-0.2-1z" />
	<path id="Layer" class="s3" d="m258.6 409.9c-13.6 0-24.6-11-24.6-24.5c0-13.6 11-24.6 24.6-24.6c13.5 0 24.5 11 24.5 24.6c0 13.5-11 24.5-24.5 24.5z" />
	<path id="Layer" class="s5" d="m245.2 495.3q-0.4-0.3-0.7-0.7q-0.3-0.3-0.5-0.7q-0.2-0.4-0.4-0.8q-0.1-0.4-0.2-0.9q-0.6-5.3-1.4-10.6q-0.8-5.3-1.7-10.6q-0.9-5.3-2-10.5q-1.1-5.3-2.3-10.5c-1.4-6.3-0.5-12.8 2.5-18.5c3.1-5.6 8.1-10 14.1-12.2c6-2.3 12.6-2.3 18.6 0c6 2.3 11 6.6 14 12.3c9.7 18.1 10.4 43 10.3 52.9q0 0.8-0.3 1.5q-0.3 0.7-0.8 1.3q-0.5 0.6-1.2 1q-0.7 0.4-1.5 0.5l-43.1 7.3q0 0-0.1 0q-0.1 0-0.2 0q-0.1 0.1-0.2 0.1q-0.1 0-0.2 0q-0.4 0-0.7-0.1q-0.4-0.1-0.7-0.2q-0.4-0.1-0.7-0.3q-0.3-0.1-0.6-0.3z" />
	<path id="Layer" class="s3" d="m347.1 407.3c4.3-0.6 8.5 1.6 10.6 5.4c2.1 3.9 1.5 8.6-1.3 11.9c-2.9 3.3-7.5 4.4-11.6 2.9l-44.3 35q-1 0.8-2.2 1.2q-1.2 0.5-2.5 0.5q-1.3 0-2.6-0.4q-1.2-0.3-2.3-1.1l-17.4-12.4l11.1-14.6l10.4 6l43-24.8q0-0.2 0-0.4q0.1-0.2 0.1-0.4q0-0.2 0.1-0.4q0-0.2 0-0.4c1-4.3 4.6-7.4 8.9-8z" />
	<path id="Layer" class="s4" d="m293.6 442.9l-13.9 18q-0.6 0.8-1.4 1.2q-0.9 0.5-1.9 0.5q-1 0.1-1.9-0.3q-0.9-0.3-1.6-1l-15.7-16.4c-2.6-2-4.3-5-4.7-8.3c-0.4-3.3 0.5-6.6 2.5-9.2c2.1-2.6 5-4.3 8.3-4.7c3.3-0.4 6.6 0.5 9.2 2.5l19.7 11q0.9 0.5 1.5 1.3q0.6 0.8 0.8 1.7q0.1 1-0.1 2q-0.2 0.9-0.8 1.7z" />
	<path id="Layer" class="s3" d="m315.3 716.4l-0.1-47.2l15.2 0.1l-2.9 47.1h-12.2z" />
	<path id="Layer" class="s5" d="m312.1 712.4h24.2c2 0 4 0.4 5.9 1.2c1.8 0.8 3.5 1.9 4.9 3.3c1.5 1.5 2.6 3.2 3.4 5c0.8 1.9 1.2 3.9 1.2 5.9v0.5h-39.6z" />
	<path id="Layer" class="s3" d="m198.3 716.4l-0.1-47.2h18.1l-5.8 47.2h-12.2z" />
	<path id="Layer" class="s5" d="m195.1 712.4h24.2c2 0 4 0.4 5.9 1.2c1.8 0.8 3.5 1.9 4.9 3.3c1.5 1.5 2.6 3.2 3.4 5c0.8 1.9 1.2 3.9 1.2 5.9v0.5h-39.6z" />
	<path id="Layer" class="s5" d="m211.6 691.9l-15.2-2q-1-0.1-1.8-0.6q-0.8-0.6-1.4-1.4q-0.5-0.8-0.7-1.7q-0.1-1 0.1-1.9l22.2-109.1q0.9-4 1.6-8q0.7-3.9 1.2-8q0.6-4 1-8q0.5-4 0.8-8.1c0.6-8.8 3.2-21.2 11.8-30.4q1.3-1.5 2.5-2.9q1.3-1.5 2.5-3q1.2-1.5 2.4-3q1.2-1.6 2.3-3.2l6.7-9.3l44.8-7.1v0.6q0.7 13.3 2.8 26.4q2.1 13.2 5.5 26.1q3.4 12.8 8.1 25.3q4.8 12.5 10.7 24.4q2.7 5.3 4.8 10.9q2.2 5.6 3.7 11.4q1.5 5.8 2.4 11.7q0.9 5.9 1.2 11.9l2.6 49.5q0 0.5-0.1 0.9q-0.1 0.5-0.2 0.9q-0.2 0.5-0.4 0.9q-0.3 0.3-0.6 0.7q-0.4 0.3-0.8 0.6q-0.3 0.2-0.8 0.4q-0.4 0.2-0.9 0.3q-0.5 0-0.9 0l-14.6-0.7q-0.7 0-1.4-0.3q-0.7-0.2-1.3-0.7q-0.5-0.5-0.9-1.1q-0.4-0.6-0.6-1.4l-12.1-54.1q0-0.2-0.1-0.4q-0.1-0.2-0.1-0.3q-0.1-0.2-0.2-0.4q-0.1-0.1-0.2-0.3l-38.1-50.8q-0.4-0.5-1.1-0.8q-0.6-0.3-1.3-0.2q-0.7 0.1-1.2 0.6q-0.6 0.4-0.8 1.1l-39.1 111.6q-0.2 0.7-0.6 1.2q-0.4 0.6-1 1q-0.6 0.4-1.2 0.6q-0.7 0.2-1.4 0.2q-0.1 0-0.2 0q0 0-0.1 0q-0.1 0-0.1 0q-0.1 0-0.2 0z" />
	<path id="Layer" class="s5" d="m231.6 368.4c-7.6 1.8-12.4 9.6-13.7 17.3c-1.3 7.7 0 15.6 0.2 23.4c0.3 10.2-1.5 20.6-6.3 29.5c-4.8 9-12.8 16.5-22.5 19.5c-9.7 3-21.1 1-28.5-6c-7.4-7-9.9-19-4.9-27.9q-0.3 1.4-0.1 2.9q0.1 1.5 0.6 2.8q0.5 1.4 1.3 2.6q0.8 1.3 1.8 2.3q1.1 1 2.3 1.8q1.2 0.8 2.6 1.3q1.3 0.6 2.7 0.9q1.5 0.4 2.9 0.4c9.7 0.7 18.9-5.7 23.9-14.1c4.9-8.3 6.3-18.3 6.7-28.1c0.3-9.7-0.3-19.5 1.1-29.1c1.4-9.6 5.1-19.4 12.5-25.7c5.1-4.4 13.4-6.6 18.3-2c2.6 2.5 3.5 6.4 3.2 10q-0.3 2.3-0.8 4.6q-0.4 2.3-1 4.5q-0.5 2.3-1.1 4.5q-0.7 2.3-1.4 4.5z" />
	<path id="Layer" class="s5" d="m264.7 379.2c0.5 1.1 0.8 2.4 0.7 3.6c-0.1 1.3-0.5 2.5-1.2 3.5c-0.7 1-1.6 1.9-2.7 2.4c-1.1 0.6-2.4 0.8-3.6 0.7c-2.2-0.1-4.4-1.2-6.5-0.5c-2.4 0.8-3.4 3.9-2.9 6.4c0.5 2.5 2.1 4.6 3.5 6.8c1.3 2.2 2.5 4.7 2 7.2c-7.9 3.4-17.6-0.8-22.4-8c-4.7-7.1-5.3-16.4-3.8-24.8q0.4-2.2 0.9-4.2q0.6-2.1 1.3-4.1q0.8-2 1.8-3.9q1-1.9 2.2-3.6q1.1-1.8 2.6-3.4q1.5-1.5 3.2-2.8q1.8-1.2 3.7-2.2q1.9-0.9 4-1.5q0.7-0.2 1.4-0.3q0.8-0.1 1.5-0.1q0.8-0.1 1.5 0q0.8 0.1 1.5 0.3q0.7 0.2 1.3 0.6q0.7 0.4 1.2 0.9q0.5 0.6 0.9 1.2q0.3 0.7 0.5 1.4q1.6-1.2 3.5-1.9q1.9-0.8 3.9-1.1q1.9-0.4 4-0.2q2 0.2 3.9 0.8q1.9 0.7 3.6 1.7q1.8 1 3.3 2.3q1.5 1.4 2.7 3q1.2 1.6 2.1 3.4q0.8 1.5 1.3 3.2q0.5 1.6 0.7 3.3q0.1 1.7 0 3.4q-0.1 1.6-0.6 3.3c-1.3 4.3-5 8-9.5 8.7c-4.4 0.7-9.4-1.9-10.7-6.3z" />
	<path id="Layer" class="s6" d="m919 728.8h-918q-0.4 0-0.7-0.3q-0.3-0.3-0.3-0.7q0-0.4 0.3-0.7q0.3-0.3 0.7-0.3h918q0.4 0 0.7 0.3q0.3 0.3 0.3 0.7q0 0.4-0.3 0.7q-0.3 0.3-0.7 0.3z" />
	<path id="123 456" fill="#f9a826" aria-label="123 456"  d="m417.75 404v-58.81c0-9-1.39-11.78-10.4-11.78h-11.68v9.61l8.61 3.16v57.82zm59.7 0v-11.58h-27.23l11.19-12.97c3.47-4.75 16.73-16.14 16.73-30.1c0-10.59-7.92-16.43-21.68-16.43c-19.3 0-22.27 10.1-22.27 22.17h12.97c0-6.03 1.58-10.59 8.61-10.59c7.03 0 8.31 4.85 8.31 7.23c0 6.43-10.79 18.02-14.85 22.67l-10.59 11.78c-3.07 3.46-5.44 6.04-5.44 10.1c0 6.04 5.64 7.72 10.49 7.72zm29.4-32.18c5.75 2.58 12.58 4.56 12.58 12.48c0 3.76-2.68 8.51-10.1 8.51c-6.83 0-7.82-5.64-7.82-8.21h-12.58c0 11.58 6.34 19.99 20.79 19.99c14.46 0 22.58-7.42 22.58-19.6c0-9.5-3.86-14.06-7.53-16.13c4.06-4.16 6.54-10.2 6.54-17.53c0-12.77-7.82-18.41-21.59-18.41c-13.76 0-20.88 6.83-20.88 22.17h12.07c0-8.02 1.79-10.39 8.81-10.39c7.03 0 9.21 5.05 9.21 6.73c0 4.65-1.48 9.51-3.76 12.38l-6.14-2.87zm106.72 17.02v-12.17h-7.92v-43.17h-12.27v43.17h-16.54l10.8-28.81h-13.77c-9.9 26.93-11.08 30.19-11.08 32.96c0 4.76 3.07 8.02 10.09 8.02h20.5v15.15h12.27v-15.15zm11.59-54.15v32.47h7.62c17.23 0 18.81 7.72 18.81 15.15c0 5.74-2.67 10.49-10.1 10.49c-6.83 0-7.82-5.64-7.82-8.21h-12.57c0 11.58 6.33 19.99 20.79 19.99c14.45 0 22.57-7.42 22.57-22.47c0-15.84-5.15-25.34-26.63-25.34v-11.09h24.65v-10.99zm96.62 20.49c0-14.85-7.03-22.27-21.58-22.27c-20.79 0-24.06 9.3-24.06 33.96v15.14c0 15.05 8.12 22.57 23.17 22.57c13.07 0 23.07-5.34 23.07-21.87c0-16.04-6.34-21.88-21.78-21.88l-11.19 4.85c0.3-14.75 0.89-20.5 10.79-20.5c7.03 0 8.52 3.07 9.41 9.9zm-22.18 37.33c-7.82 0-10.3-4.36-10.3-14.95l11.59-6.24c7.72 0 8.71 4.95 8.71 11.49c0 5.14-2.28 9.7-10 9.7z" />
</svg>