<svg version="1.2" xmlns="http://www.w3.org/2000/svg" viewBox="0 0 244 91" width="244" height="91">
	<title>
		New Project
	</title>
	<style>
		.s0 { fill: #3a75c4 }
		.s1 { fill: #f9dd16 }
	</style>
	<path id="MATCHING" fill-rule="evenodd" class="s0" d="m34.1 36h-3.1v-18.7c0-4.3 0-9.1 0.1-13.1c-1.3 4-3.1 8.8-4.7 13.1l-7 18.7h-3.9l-7.1-18.8c-1.5-4.2-3.3-9-4.6-13c0.1 4 0.1 8.8 0.1 13.1v18.7h-3.1v-34.6h5.1l11.6 32l11.7-32h4.9zm13.2-12.7l-4.5 12.7h-3.3l12.8-34.6h4.2l12.4 34.6h-3.3l-4.5-12.7zm12.9-2.6l-5.9-16.8l-6.1 16.8zm22.8-16.7v32h-3.1v-32h-12.7v-2.6h28.5v2.6zm44.3 8.2v0.5h-3.1l-0.1-0.5c-1.1-5.3-4.5-9-10.7-9c-7.1 0-12.5 6.1-12.5 15.5c0 9.6 5.1 15.5 12.2 15.5c6.4 0 9.8-3.9 10.8-9.2l0.1-0.5h3.2l-0.1 0.5c-0.9 6.4-5.4 11.7-14.2 11.7c-9.5 0-15.4-7.3-15.4-17.9c0-10.6 6.6-18.1 16.1-18.1c8.3 0 12.8 4.9 13.7 11.5zm33.8 23.8h-3.1v-15.6h-20.3v15.6h-3.1v-34.6h3.1v16.3h20.3v-16.3h3.1zm8.7 0v-34.6h3.1v34.6zm32.8 0l-18-31.6c0.1 4.3 0.2 9.4 0.2 13.7v17.9h-3.1v-34.6h4.7l18 31.6c-0.1-4.3-0.1-9.4-0.1-13.8v-17.8h3.1v34.6zm40.8-16.2v16.2h-2.8v-7.1l-1.4 3.1c-2.3 3.2-6 4.7-10.1 4.7c-9.5 0-15.5-7.3-15.5-17.9c0-10.6 6.7-18.1 16.3-18.1c8.3 0 12.8 4.9 13.7 11.5l0.1 0.5h-3.1l-0.1-0.5c-1.1-5.3-4.5-9-10.7-9c-7.3 0-12.7 6.1-12.7 15.5c0 9.6 5.1 15.5 12.2 15.5c5.5 0 11-4 11-11.8h-9.5v-2.6z" />
	<path id="NEEDS" fill-rule="evenodd" class="s1" d="m31.8 90l-18.2-33c0.4 5.1 0.4 9.5 0.4 12.4v20.6h-13v-50h16.2l19 34.5c-0.4-5.1-0.4-10.2-0.4-13.1v-21.4h13v50zm65 0h-38.3v-50h37.6v10.2h-24.5v9.7h23v10.1h-23v9.9h25.2zm46.3 0h-38.3v-50h37.6v10.1h-24.6v9.7h23.1v10.2h-23.1v9.8h25.3zm54.4-25.6c0 15.6-9.6 24-21.2 25.3c-2.5 0.3-3.7 0.3-6.4 0.3h-18.9v-49.9h18.9c2.7 0 3.9 0 6.4 0.3c11.6 1.3 21.2 8.4 21.2 24zm-13.7 0.2c0-8.9-4.4-13.7-11-14.2c-1.6-0.2-2.8-0.2-4.7-0.2h-4v29.7h4c1.9 0 3.1 0 4.7-0.2c6.6-0.5 11-6.2 11-15.1zm58.8-9.1h-13.1c-0.5-4.1-2.7-6.9-7-6.9c-3 0-5 1.5-5 4.5c0 3.2 2.3 5.1 10.6 7.1c11 2.6 15.5 8.1 15.5 15.8c0 10-9.6 15-19.6 15c-12.7 0-21.3-5-22.1-16.2h13.1c0.8 4.7 4.7 6.7 8.6 6.7c3.6 0 6.4-1.9 6.4-4.6c0-2.7-1.9-4.9-8.1-6.4c-11.3-2.8-18-6.4-18-16.4c0-9.6 9-15 18.9-15c13.2 0 18.7 7.1 19.8 16.4z" />
</svg>
