<svg version="1.2" xmlns="http://www.w3.org/2000/svg" viewBox="0 0 455 53" width="455" height="53">
	<title>New Project</title>
	<defs>
		<linearGradient id="g1" x1="404.9" y1="53" x2="404.9" y2=".9" gradientUnits="userSpaceOnUse">
			<stop offset=".5" stop-color="#ffdd00"/>
			<stop offset=".5" stop-color="#008dff"/>
		</linearGradient>
	</defs>
	<style>
		tspan { white-space:pre } 
		.s0 { fill: #000000 } 
		.s1 { fill: url(#g1) } 
	</style>
	<g id="Folder 1 copy">
		<path id="POTRZEBY" fill-rule="evenodd" class="s0" d="m34.2 15.5c0 8.7-5.8 13.6-13 14.6c-2.3 0.3-4.3 0.3-6.9 0.3h-9.5v21.6h-4.6v-51.1h14.1c2.6 0 4.6 0 6.9 0.3c7.7 1 13 5.6 13 14.3zm-5 0c0-6.6-3.7-9.6-8.4-10.3c-1.7-0.3-3.7-0.4-6.1-0.4h-9.9v21.6h9.9c2.4 0 4.4 0 6.1-0.3c4.7-0.8 8.4-3.9 8.4-10.6zm56.9 10.9c0 15.4-8.8 26.6-23.8 26.6c-14.9 0-23.7-11.2-23.7-26.6c0-15.5 8.8-26.6 23.7-26.6c15 0 23.8 11.1 23.8 26.6zm-5.1 0c0-14.3-7.6-22.9-18.7-22.9c-10.9 0-18.6 8.6-18.6 22.9c0 14.3 7.7 22.9 18.6 22.9c11.1 0 18.7-8.6 18.7-22.9zm31.7-21.8v47.4h-4.6v-47.4h-18.8v-3.7h42.1v3.7zm61.4 47.4h-5.1c-1.2-3.3-2.1-6.4-2.9-13.1c-0.6-5.4-2.9-9.7-8.3-9.9c-1.4-0.1-2.9-0.1-4-0.1h-10.5v23.1h-4.6v-51.1h15.1c2.5 0 4.6 0 6.9 0.3c7.6 0.9 12.6 5.1 12.6 13.2c0 6.8-4.3 10.8-9.6 12.2c4.4 1.8 6.5 6.4 7 11.8c0.8 7 1.7 10.7 3.4 13.6zm-20.3-27c2.3 0 3.5 0 5.2-0.1c5.6-0.5 9.4-4.1 9.4-10.1c0-6-3.2-9-8.8-9.8c-1.8-0.2-3.4-0.3-5.8-0.3h-10.5v20.3zm62.7 27h-37.5v-3.6l31.7-43.7h-29.6v-3.8h35v3.7l-31.6 43.5h32zm42.2 0h-33.2v-51.1h32.4v3.8h-27.8v19.9h25.9v3.8h-25.9v19.9h28.6zm44.7-14.6c0 8.9-6.6 13.5-13.6 14.3c-2.3 0.3-3.9 0.3-6 0.3h-15.6v-51.2h14.3c2.2 0 3.7 0 6.3 0.3c7.9 0.8 12.7 5.1 12.7 12.3c0 6.2-3.6 9.9-9.1 11.4c7.2 1.6 11 5.7 11 12.6zm-30.6-14h10.8c1.2 0 2.5 0 4-0.2c5.3-0.6 8.9-3.5 8.9-9.3c0-6.2-4.3-8.7-9.4-9.1c-1.5-0.1-2.9-0.1-4.3-0.1h-10zm25.7 14.4c0-6-3.3-9.8-10.1-10.4c-1.7-0.2-2.8-0.2-4-0.2h-11.6v20.9h12c1.2 0 2.5 0 3.5-0.1c5.4-0.5 10.2-3.6 10.2-10.2zm32 14.1h-4.6v-20.4l-18.1-30.7h5.3l15.3 26.2l15-26.2h5.2l-18.1 30.7z" />
		<path id="UA" fill-rule="evenodd" class="s1" d="m399.9 29.5c0 2.6 0 4.2-0.2 7.2c-0.6 8.6-6.7 16.3-22.5 16.3c-15.8 0-21.8-7.7-22.4-16.3c-0.3-3-0.3-4.6-0.3-7.2v-28.6h13.4v31.1c0 1.4 0 2.1 0.1 3c0.3 5.4 3.4 8.3 9.2 8.3c5.9 0 8.9-2.9 9.3-8.3c0.1-0.9 0.1-1.6 0.1-3v-31.1h13.3zm20.7 9.2l-4.3 13.2h-14.2l18.5-51.1h16.3l18.4 51.1h-14.5l-4.3-13.2zm3.3-10.4h9.5l-4.8-15.7z" />
	</g>
</svg>