<svg id="Layer_1" enable-background="new 0 0 256 256" height="512" viewBox="0 0 256 256" width="512" xmlns="http://www.w3.org/2000/svg"><g><g><path d="m170.432 36.86c-15.642 0-29.709 6.74-39.457 17.474-1.601 1.763-4.348 1.763-5.949 0-9.748-10.734-23.816-17.474-39.458-17.474-29.429 0-53.286 23.857-53.286 53.286 0 43.89 67.412 107.24 89.09 126.477 3.785 3.359 9.471 3.359 13.256 0 21.678-19.237 89.09-82.587 89.09-126.477 0-29.429-23.857-53.286-53.286-53.286z" fill="#e63950"/></g><g><path d="m111.31 201.21c-.52 0-1.01-.19-1.38-.55-14.51-13.83-27.35-27.48-38.15-40.57-17.55-21.31-28.75-40.07-33.28-55.75-.15-.51-.09-1.05.17-1.52.25-.47.68-.81 1.19-.96 1.04-.3 2.18.34 2.48 1.37 4.29 14.94 15.54 33.72 32.53 54.31 10.71 12.98 23.43 26.52 37.82 40.22.38.37.6.87.62 1.4.01.54-.19 1.05-.55 1.43-.39.4-.9.62-1.45.62zm-72.6-103.23c-.99 0-1.84-.74-1.98-1.72-.15-1.09.61-2.11 1.7-2.26 1.07-.16 2.11.62 2.26 1.7.16 1.09-.6 2.1-1.7 2.26-.09.01-.19.02-.28.02z" fill="#e8566f"/></g><g><path d="m202.772 47.806c6.861 8.969 10.946 20.175 10.946 32.34 0 43.89-67.412 107.24-89.09 126.477-3.785 3.359-9.471 3.359-13.256 0-4.578-4.063-11.201-10.099-18.793-17.498 11.676 11.99 22.292 21.729 28.793 27.498 3.785 3.359 9.471 3.359 13.256 0 21.678-19.237 89.09-82.586 89.09-126.477 0-17.264-8.217-32.602-20.946-42.34z" fill="#d10028"/></g><g><g><path d="m205.518 50.06c8.212 9.375 13.2 21.644 13.2 35.086 0 43.887-67.401 107.229-89.085 126.472-3.788 3.361-9.479 3.361-13.267 0-5.075-4.504-12.655-11.424-21.289-19.945 10.678 10.816 20.255 19.59 26.289 24.945 3.788 3.361 9.479 3.361 13.267 0 21.684-19.243 89.085-82.585 89.085-126.472 0-15.987-7.05-30.319-18.2-40.086z" fill="#b7022d"/></g></g></g></svg>