<svg clip-rule="evenodd" fill-rule="evenodd" height="512" stroke-linejoin="round" stroke-miterlimit="2" viewBox="0 0 64 64" width="512" xmlns="http://www.w3.org/2000/svg"><g transform="translate(-832 -576)"><g transform="translate(640 256)"><path d="m240 376-12-48 22 24 6 24z" fill="#ffc800"/></g><g transform="translate(640 256)"><path d="m250 352h-16l-6-24h16z" fill="#005af0"/></g><g transform="translate(774 252)"><path d="m98 372 8-8 8 8-8 8z" fill="#001130"/></g><g transform="matrix(1 0 0 1.125 768 208)"><path d="m68 369.778c0-.472-.211-.924-.586-1.257-.375-.334-.884-.521-1.414-.521s-1.039.187-1.414.521c-.375.333-.586.785-.586 1.257v14.222h4z" fill="#001130"/></g><g transform="matrix(1.143 0 0 .571 774.857 425.143)"><path d="m78 264h-28v42l3.5 42 35-42z" fill="#0081f8"/></g><g transform="translate(592 248)"><path d="m240 376v-24h44l12 24z" fill="#ffe646"/></g></g></svg>