<?xml version="1.0" encoding="iso-8859-1"?>
<!-- Generator: Adobe Illustrator 19.0.0, SVG Export Plug-In . SVG Version: 6.00 Build 0)  -->
<svg version="1.1" id="Capa_1" xmlns="http://www.w3.org/2000/svg" xmlns:xlink="http://www.w3.org/1999/xlink" x="0px" y="0px"
	 viewBox="0 0 473.677 473.677" style="enable-background:new 0 0 473.677 473.677;" xml:space="preserve">
<path style="fill:#3DAAE0;" d="M324.756,236.842h148.921C473.677,106.032,367.641,0,236.835,0
	C302.236,0,324.76,118.425,324.756,236.842z"/>
<path style="fill:#44C1EF;" d="M0,236.842h334.935C334.939,118.425,302.236,0,236.835,0C106.036,0,0,106.032,0,236.842z"/>
<path style="fill:#E8BD1F;" d="M319.771,236.842c0,118.417-17.531,236.835-82.936,236.835
	c130.807,0,236.842-106.036,236.842-236.835H319.771z"/>
<path style="fill:#FDCE0C;" d="M334.935,236.842H0c0,130.799,106.036,236.835,236.835,236.835
	C302.236,473.677,334.935,355.26,334.935,236.842z"/>
<g>
</g>
<g>
</g>
<g>
</g>
<g>
</g>
<g>
</g>
<g>
</g>
<g>
</g>
<g>
</g>
<g>
</g>
<g>
</g>
<g>
</g>
<g>
</g>
<g>
</g>
<g>
</g>
<g>
</g>
</svg>
