<svg height="512" viewBox="0 0 64 64" width="512" xmlns="http://www.w3.org/2000/svg"><g id="Layer_50" data-name="Layer 50"><path d="m4 44.55h56v2.79h-56z" fill="#fff"/><path d="m4 38.97h56v2.79h-56z" fill="#fff"/><path d="m4 33.39h56v2.79h-56z" fill="#fff"/><path d="m4 27.82h56v2.79h-56z" fill="#fff"/><path d="m4 22.24h56v2.79h-56z" fill="#fff"/><path d="m4 16.66h56v2.79h-56z" fill="#fff"/><path d="m4 47.34h56v2.79h-56z" fill="#bd3d44"/><path d="m4 41.76h56v2.79h-56z" fill="#bd3d44"/><path d="m4 36.18h56v2.79h-56z" fill="#bd3d44"/><path d="m4 30.61h56v2.79h-56z" fill="#bd3d44"/><path d="m4 25.03h56v2.79h-56z" fill="#bd3d44"/><path d="m4 19.45h56v2.79h-56z" fill="#bd3d44"/><path d="m4 13.87h56v2.79h-56z" fill="#bd3d44"/><path d="m4 13.87h23.61v16.46h-23.61z" fill="#192f5d"/><g fill="#fff"><path d="m5.64 16.48.56-.41.56.41-.21-.66.56-.4h-.69l-.22-.66-.21.66h-.69l.56.4z"/><path d="m6.2 18.01-.21.66h-.69l.56.4-.22.66.56-.41.56.41-.21-.66.56-.4h-.69z"/><path d="m6.2 21.26-.21.66h-.69l.56.4-.22.66.56-.41.56.41-.21-.66.56-.4h-.69z"/><path d="m6.2 24.51-.21.65h-.69l.56.41-.22.66.56-.41.56.41-.21-.66.56-.41h-.69z"/><path d="m6.42 28.41-.22-.65-.21.65h-.69l.56.41-.22.66.56-.41.56.41-.21-.66.56-.41z"/><path d="m9.29 16.48.56-.41.55.41-.21-.66.56-.4h-.69l-.21-.66-.22.66h-.69l.56.4z"/><path d="m9.85 18.01-.22.66h-.69l.56.4-.21.66.56-.41.55.41-.21-.66.56-.4h-.69z"/><path d="m9.85 21.26-.22.66h-.69l.56.4-.21.66.56-.41.55.41-.21-.66.56-.4h-.69z"/><path d="m9.85 24.51-.22.65h-.69l.56.41-.21.66.56-.41.55.41-.21-.66.56-.41h-.69z"/><path d="m10.06 28.41-.21-.65-.22.65h-.69l.56.41-.21.66.56-.41.55.41-.21-.66.56-.41z"/><path d="m12.93 16.48.56-.41.55.41-.21-.66.56-.4h-.69l-.21-.66-.22.66h-.69l.56.4z"/><path d="m13.49 18.01-.22.66h-.69l.56.4-.21.66.56-.41.55.41-.21-.66.56-.4h-.69z"/><path d="m13.49 21.26-.22.66h-.69l.56.4-.21.66.56-.41.55.41-.21-.66.56-.4h-.69z"/><path d="m13.49 24.51-.22.65h-.69l.56.41-.21.66.56-.41.55.41-.21-.66.56-.41h-.69z"/><path d="m13.7 28.41-.21-.65-.22.65h-.69l.56.41-.21.66.56-.41.55.41-.21-.66.56-.41z"/><path d="m16.57 16.48.56-.41.56.41-.22-.66.56-.4h-.69l-.21-.66-.22.66h-.68l.55.4z"/><path d="m17.13 18.01-.22.66h-.68l.55.4-.21.66.56-.41.56.41-.22-.66.56-.4h-.69z"/><path d="m17.13 21.26-.22.66h-.68l.55.4-.21.66.56-.41.56.41-.22-.66.56-.4h-.69z"/><path d="m17.13 24.51-.22.65h-.68l.55.41-.21.66.56-.41.56.41-.22-.66.56-.41h-.69z"/><path d="m17.34 28.41-.21-.65-.22.65h-.68l.55.41-.21.66.56-.41.56.41-.22-.66.56-.41z"/><path d="m20.21 16.48.56-.41.56.41-.22-.66.56-.4h-.69l-.21-.66-.21.66h-.69l.56.4z"/><path d="m20.77 18.01-.21.66h-.69l.56.4-.22.66.56-.41.56.41-.22-.66.56-.4h-.69z"/><path d="m20.77 21.26-.21.66h-.69l.56.4-.22.66.56-.41.56.41-.22-.66.56-.4h-.69z"/><path d="m20.77 24.51-.21.65h-.69l.56.41-.22.66.56-.41.56.41-.22-.66.56-.41h-.69z"/><path d="m20.98 28.41-.21-.65-.21.65h-.69l.56.41-.22.66.56-.41.56.41-.22-.66.56-.41z"/><path d="m23.86 16.48.55-.41.56.41-.21-.66.56-.4h-.69l-.22-.66-.21.66h-.69l.56.4z"/><path d="m24.41 18.01-.21.66h-.69l.56.4-.21.66.55-.41.56.41-.21-.66.56-.4h-.69z"/><path d="m24.41 21.26-.21.66h-.69l.56.4-.21.66.55-.41.56.41-.21-.66.56-.4h-.69z"/><path d="m24.41 24.51-.21.65h-.69l.56.41-.21.66.55-.41.56.41-.21-.66.56-.41h-.69z"/><path d="m24.63 28.41-.22-.65-.21.65h-.69l.56.41-.21.66.55-.41.56.41-.21-.66.56-.41z"/><path d="m7.47 18.27.55-.41.56.41-.21-.66.56-.41h-.69l-.22-.65-.21.65h-.69l.56.41z"/><path d="m8.02 19.8-.21.65h-.69l.56.41-.21.65.55-.4.56.4-.21-.65.56-.41h-.69z"/><path d="m8.02 23.05-.21.65h-.69l.56.41-.21.65.55-.4.56.4-.21-.65.56-.41h-.69z"/><path d="m8.02 26.3-.21.65h-.69l.56.41-.21.65.55-.4.56.4-.21-.65.56-.41h-.69z"/><path d="m11.11 18.27.56-.41.55.41-.21-.66.56-.41h-.69l-.21-.65-.22.65h-.69l.56.41z"/><path d="m11.67 19.8-.22.65h-.69l.56.41-.21.65.56-.4.55.4-.21-.65.56-.41h-.69z"/><path d="m11.67 23.05-.22.65h-.69l.56.41-.21.65.56-.4.55.4-.21-.65.56-.41h-.69z"/><path d="m11.67 26.3-.22.65h-.69l.56.41-.21.65.56-.4.55.4-.21-.65.56-.41h-.69z"/><path d="m14.75 18.27.56-.41.56.41-.22-.66.56-.41h-.69l-.21-.65-.21.65h-.7l.56.41z"/><path d="m15.31 19.8-.21.65h-.7l.56.41-.21.65.56-.4.56.4-.22-.65.56-.41h-.69z"/><path d="m15.31 23.05-.21.65h-.7l.56.41-.21.65.56-.4.56.4-.22-.65.56-.41h-.69z"/><path d="m15.31 26.3-.21.65h-.7l.56.41-.21.65.56-.4.56.4-.22-.65.56-.41h-.69z"/><path d="m18.39 18.27.56-.41.56.41-.22-.66.56-.41h-.69l-.21-.65-.21.65h-.69l.56.41z"/><path d="m18.95 19.8-.21.65h-.69l.56.41-.22.65.56-.4.56.4-.22-.65.56-.41h-.69z"/><path d="m18.95 23.05-.21.65h-.69l.56.41-.22.65.56-.4.56.4-.22-.65.56-.41h-.69z"/><path d="m18.95 26.3-.21.65h-.69l.56.41-.22.65.56-.4.56.4-.22-.65.56-.41h-.69z"/><path d="m22.03 18.27.56-.41.56.41-.21-.66.55-.41h-.69l-.21-.65-.21.65h-.69l.56.41z"/><path d="m22.59 19.8-.21.65h-.69l.56.41-.22.65.56-.4.56.4-.21-.65.55-.41h-.69z"/><path d="m22.59 23.05-.21.65h-.69l.56.41-.22.65.56-.4.56.4-.21-.65.55-.41h-.69z"/><path d="m22.59 26.3-.21.65h-.69l.56.41-.22.65.56-.4.56.4-.21-.65.55-.41h-.69z"/></g></g></svg>